<svg width="44" height="44" viewBox="0 0 44 44" fill="none" xmlns="http://www.w3.org/2000/svg">
<g filter="url(#filter0_dd)">
<mask id="path-1-outside-1" maskUnits="userSpaceOnUse" x="7" y="9.17224" width="32" height="27" fill="black">
<rect fill="white" x="7" y="9.17224" width="32" height="27"/>
<path fill-rule="evenodd" clip-rule="evenodd" d="M31.6508 12.4149C31.0021 11.8589 30 12.3198 30 13.1742V15H28.1995C26.2374 15 24.3653 15.8235 23.0394 17.2699L20.5 20.0402L17.9606 17.2699C16.6347 15.8235 14.7626 15 12.8005 15H11C9.89543 15 9 15.8954 9 17C9 18.1045 9.89543 19 11 19H12.8005C13.6414 19 14.4437 19.3529 15.012 19.9728L17.7869 23L15.012 26.0271C14.4437 26.647 13.6414 27 12.8005 27H11C9.89543 27 9 27.8954 9 29C9 30.1045 9.89543 31 11 31H12.8005C14.7626 31 16.6347 30.1764 17.9606 28.73L20.5 25.9598L23.0394 28.73C24.3653 30.1764 26.2374 31 28.1995 31H30V32.8258C30 33.6801 31.0021 34.141 31.6508 33.585L36.1142 29.7593C36.5798 29.3602 36.5798 28.6398 36.1142 28.2407L31.6508 24.415C31.0021 23.859 30 24.3199 30 25.1742V27H28.1995C27.3586 27 26.5563 26.647 25.988 26.0271L23.2131 23L25.988 19.9728C26.5563 19.3529 27.3586 19 28.1995 19H30V20.8257C30 21.6801 31.0021 22.141 31.6508 21.585L36.1142 17.7592C36.5798 17.3601 36.5798 16.6398 36.1142 16.2407L31.6508 12.4149Z"/>
</mask>
<path fill-rule="evenodd" clip-rule="evenodd" d="M31.6508 12.4149C31.0021 11.8589 30 12.3198 30 13.1742V15H28.1995C26.2374 15 24.3653 15.8235 23.0394 17.2699L20.5 20.0402L17.9606 17.2699C16.6347 15.8235 14.7626 15 12.8005 15H11C9.89543 15 9 15.8954 9 17C9 18.1045 9.89543 19 11 19H12.8005C13.6414 19 14.4437 19.3529 15.012 19.9728L17.7869 23L15.012 26.0271C14.4437 26.647 13.6414 27 12.8005 27H11C9.89543 27 9 27.8954 9 29C9 30.1045 9.89543 31 11 31H12.8005C14.7626 31 16.6347 30.1764 17.9606 28.73L20.5 25.9598L23.0394 28.73C24.3653 30.1764 26.2374 31 28.1995 31H30V32.8258C30 33.6801 31.0021 34.141 31.6508 33.585L36.1142 29.7593C36.5798 29.3602 36.5798 28.6398 36.1142 28.2407L31.6508 24.415C31.0021 23.859 30 24.3199 30 25.1742V27H28.1995C27.3586 27 26.5563 26.647 25.988 26.0271L23.2131 23L25.988 19.9728C26.5563 19.3529 27.3586 19 28.1995 19H30V20.8257C30 21.6801 31.0021 22.141 31.6508 21.585L36.1142 17.7592C36.5798 17.3601 36.5798 16.6398 36.1142 16.2407L31.6508 12.4149Z" fill="url(#paint0_linear)"/>
<path d="M31.6508 12.4149L32.9524 10.8964V10.8964L31.6508 12.4149ZM30 15V17H32V15H30ZM23.0394 17.2699L24.5137 18.6213L24.5137 18.6213L23.0394 17.2699ZM20.5 20.0402L19.0257 21.3916L20.5 23L21.9743 21.3916L20.5 20.0402ZM17.9606 17.2699L19.4349 15.9184V15.9184L17.9606 17.2699ZM15.012 19.9728L13.5376 21.3242L13.5376 21.3242L15.012 19.9728ZM17.7869 23L19.2612 24.3514L20.5 23L19.2612 21.6485L17.7869 23ZM15.012 26.0271L13.5376 24.6757L13.5376 24.6757L15.012 26.0271ZM17.9606 28.73L19.4349 30.0815L17.9606 28.73ZM20.5 25.9598L21.9743 24.6083L20.5 23L19.0257 24.6083L20.5 25.9598ZM23.0394 28.73L24.5137 27.3786L24.5137 27.3786L23.0394 28.73ZM30 31H32V29H30V31ZM31.6508 33.585L32.9524 35.1035V35.1035L31.6508 33.585ZM36.1142 29.7593L34.8126 28.2407L34.8126 28.2407L36.1142 29.7593ZM36.1142 28.2407L37.4158 26.7222L37.4158 26.7222L36.1142 28.2407ZM31.6508 24.415L32.9524 22.8965V22.8965L31.6508 24.415ZM30 27V29H32V27H30ZM25.988 26.0271L27.4624 24.6757L27.4624 24.6757L25.988 26.0271ZM23.2131 23L21.7388 21.6485L20.5 23L21.7388 24.3514L23.2131 23ZM25.988 19.9728L27.4624 21.3242L25.988 19.9728ZM30 19H32V17H30V19ZM31.6508 21.585L32.9524 23.1035L31.6508 21.585ZM36.1142 17.7592L34.8126 16.2407L34.8126 16.2407L36.1142 17.7592ZM36.1142 16.2407L37.4158 14.7222L37.4158 14.7222L36.1142 16.2407ZM32 13.1742C32 14.0285 30.9979 14.4894 30.3492 13.9334L32.9524 10.8964C31.0064 9.22839 28 10.6111 28 13.1742H32ZM32 15V13.1742H28V15H32ZM28.1995 17H30V13H28.1995V17ZM24.5137 18.6213C25.4608 17.5882 26.798 17 28.1995 17V13C25.6768 13 23.2698 14.0588 21.5651 15.9185L24.5137 18.6213ZM21.9743 21.3916L24.5137 18.6213L21.5651 15.9185L19.0257 18.6887L21.9743 21.3916ZM16.4863 18.6213L19.0257 21.3916L21.9743 18.6887L19.4349 15.9184L16.4863 18.6213ZM12.8005 17C14.202 17 15.5392 17.5882 16.4863 18.6213L19.4349 15.9184C17.7302 14.0588 15.3232 13 12.8005 13V17ZM11 17H12.8005V13H11V17ZM11 17V13C8.79086 13 7 14.7908 7 17H11ZM11 17H7C7 19.2091 8.79086 21 11 21V17ZM12.8005 17H11V21H12.8005V17ZM16.4863 18.6213C15.5392 17.5882 14.202 17 12.8005 17V21C13.0808 21 13.3482 21.1176 13.5376 21.3242L16.4863 18.6213ZM19.2612 21.6485L16.4863 18.6213L13.5376 21.3242L16.3126 24.3514L19.2612 21.6485ZM16.4863 27.3786L19.2612 24.3514L16.3126 21.6485L13.5376 24.6757L16.4863 27.3786ZM12.8005 29C14.202 29 15.5392 28.4117 16.4863 27.3786L13.5376 24.6757C13.3482 24.8823 13.0808 25 12.8005 25V29ZM11 29H12.8005V25H11V29ZM11 29V25C8.79086 25 7 26.7908 7 29H11ZM11 29H7C7 31.2091 8.79086 33 11 33V29ZM12.8005 29H11V33H12.8005V29ZM16.4863 27.3786C15.5392 28.4117 14.202 29 12.8005 29V33C15.3232 33 17.7302 31.9412 19.4349 30.0815L16.4863 27.3786ZM19.0257 24.6083L16.4863 27.3786L19.4349 30.0815L21.9743 27.3112L19.0257 24.6083ZM24.5137 27.3786L21.9743 24.6083L19.0257 27.3112L21.5651 30.0815L24.5137 27.3786ZM28.1995 29C26.798 29 25.4608 28.4117 24.5137 27.3786L21.5651 30.0815C23.2698 31.9412 25.6768 33 28.1995 33V29ZM30 29H28.1995V33H30V29ZM32 32.8258V31H28V32.8258H32ZM30.3492 32.0665C30.9979 31.5105 32 31.9714 32 32.8258H28C28 35.3888 31.0064 36.7716 32.9524 35.1035L30.3492 32.0665ZM34.8126 28.2407L30.3492 32.0665L32.9524 35.1035L37.4158 31.2778L34.8126 28.2407ZM34.8126 29.7593C34.347 29.3602 34.347 28.6398 34.8126 28.2407L37.4158 31.2778C38.8126 30.0805 38.8126 27.9195 37.4158 26.7222L34.8126 29.7593ZM30.3492 25.9335L34.8126 29.7593L37.4158 26.7222L32.9524 22.8965L30.3492 25.9335ZM32 25.1742C32 26.0286 30.9979 26.4895 30.3492 25.9335L32.9524 22.8965C31.0064 21.2284 28 22.6112 28 25.1742H32ZM32 27V25.1742H28V27H32ZM28.1995 29H30V25H28.1995V29ZM24.5137 27.3786C25.4608 28.4117 26.798 29 28.1995 29V25C27.9192 25 27.6518 24.8823 27.4624 24.6757L24.5137 27.3786ZM21.7388 24.3514L24.5137 27.3786L27.4624 24.6757L24.6874 21.6485L21.7388 24.3514ZM24.5137 18.6213L21.7388 21.6485L24.6874 24.3514L27.4624 21.3242L24.5137 18.6213ZM28.1995 17C26.798 17 25.4608 17.5882 24.5137 18.6213L27.4624 21.3242C27.6518 21.1176 27.9192 21 28.1995 21V17ZM30 17H28.1995V21H30V17ZM32 20.8257V19H28V20.8257H32ZM30.3492 20.0665C30.9979 19.5105 32 19.9714 32 20.8257H28C28 23.3888 31.0064 24.7715 32.9524 23.1035L30.3492 20.0665ZM34.8126 16.2407L30.3492 20.0665L32.9524 23.1035L37.4158 19.2777L34.8126 16.2407ZM34.8126 17.7592C34.347 17.3601 34.347 16.6398 34.8126 16.2407L37.4158 19.2777C38.8126 18.0804 38.8126 15.9195 37.4158 14.7222L34.8126 17.7592ZM30.3492 13.9334L34.8126 17.7592L37.4158 14.7222L32.9524 10.8964L30.3492 13.9334Z" fill="#1A1A1A" mask="url(#path-1-outside-1)"/>
</g>
<path opacity="0.7" d="M15.0071 19.9621L18.2982 17.628L20.5101 20.0439L17.7852 23L15.0071 19.9621Z" fill="url(#paint1_linear)"/>
<path d="M25.975 26.0198L22.684 28.354L20.4961 25.9687L23.2234 22.9845L25.975 26.0198Z" fill="url(#paint2_linear)"/>
<defs>
<filter id="filter0_dd" x="3" y="8.16833" width="39.4634" height="33.6632" filterUnits="userSpaceOnUse" color-interpolation-filters="sRGB">
<feFlood flood-opacity="0" result="BackgroundImageFix"/>
<feColorMatrix in="SourceAlpha" type="matrix" values="0 0 0 0 0 0 0 0 0 0 0 0 0 0 0 0 0 0 127 0"/>
<feOffset dy="-1"/>
<feGaussianBlur stdDeviation="0.5"/>
<feColorMatrix type="matrix" values="0 0 0 0 0 0 0 0 0 0 0 0 0 0 0 0 0 0 1 0"/>
<feBlend mode="normal" in2="BackgroundImageFix" result="effect1_dropShadow"/>
<feColorMatrix in="SourceAlpha" type="matrix" values="0 0 0 0 0 0 0 0 0 0 0 0 0 0 0 0 0 0 127 0"/>
<feOffset dy="2"/>
<feGaussianBlur stdDeviation="2"/>
<feColorMatrix type="matrix" values="0 0 0 0 0.504167 0 0 0 0 0.504167 0 0 0 0 0.504167 0 0 0 0.25 0"/>
<feBlend mode="normal" in2="effect1_dropShadow" result="effect2_dropShadow"/>
<feBlend mode="normal" in="SourceGraphic" in2="effect2_dropShadow" result="shape"/>
</filter>
<linearGradient id="paint0_linear" x1="21.8855" y1="13.3344" x2="21.8855" y2="33.8336" gradientUnits="userSpaceOnUse">
<stop stop-color="#F9FEFF"/>
<stop offset="1" stop-color="#969696"/>
</linearGradient>
<linearGradient id="paint1_linear" x1="19.4501" y1="20.9556" x2="17.9422" y2="19.3464" gradientUnits="userSpaceOnUse">
<stop stop-color="#1A1A1A"/>
<stop offset="1" stop-color="#C4C4C4" stop-opacity="0"/>
</linearGradient>
<linearGradient id="paint2_linear" x1="21.5321" y1="25.0262" x2="23.04" y2="26.6355" gradientUnits="userSpaceOnUse">
<stop stop-color="#1A1A1A"/>
<stop offset="1" stop-color="#C4C4C4" stop-opacity="0"/>
</linearGradient>
</defs>
</svg>
