<svg width="27" height="24" viewBox="0 0 27 24" fill="none" xmlns="http://www.w3.org/2000/svg">
<g filter="url(#filter0_dd)">
<mask id="path-1-outside-1" maskUnits="userSpaceOnUse" x="4" y="1.99805" width="19" height="16" fill="black">
<rect fill="white" x="4" y="1.99805" width="19" height="16"/>
<path fill-rule="evenodd" clip-rule="evenodd" d="M12.4 5.19986L10 6.99986H7C6.44772 6.99986 6 7.44758 6 7.99986V11.9999C6 12.5521 6.44772 12.9999 7 12.9999H10L12.4 14.7999C13.0592 15.2943 14 14.8239 14 13.9999V5.99986C14 5.17582 13.0592 4.70544 12.4 5.19986ZM18.9497 5.05011C19.5997 5.70012 20.1154 6.4718 20.4671 7.32108C20.8189 8.17036 21 9.08061 21 9.99986C21 10.9191 20.8189 11.8294 20.4671 12.6786C20.1154 13.5279 19.5997 14.2996 18.9497 14.9496L18.1258 14.1256C18.6676 13.5838 19.0974 12.9406 19.3906 12.2327C19.6838 11.5248 19.8347 10.7661 19.8347 9.99986C19.8347 9.23363 19.6838 8.47491 19.3906 7.76701C19.0974 7.0591 18.6676 6.41589 18.1258 5.87408L18.9497 5.05011ZM17.9197 8.37628C17.7065 7.86154 17.3939 7.39383 17 6.99987L16.1523 7.84752C16.435 8.13017 16.6592 8.46572 16.8122 8.83502C16.9651 9.20432 17.0439 9.60013 17.0439 9.99986C17.0439 10.3996 16.9651 10.7954 16.8122 11.1647C16.6592 11.534 16.435 11.8696 16.1523 12.1522L17 12.9999C17.3939 12.6059 17.7065 12.1382 17.9197 11.6234C18.1329 11.1087 18.2426 10.557 18.2426 9.99986C18.2426 9.44271 18.1329 8.89102 17.9197 8.37628Z"/>
</mask>
<path fill-rule="evenodd" clip-rule="evenodd" d="M12.4 5.19986L10 6.99986H7C6.44772 6.99986 6 7.44758 6 7.99986V11.9999C6 12.5521 6.44772 12.9999 7 12.9999H10L12.4 14.7999C13.0592 15.2943 14 14.8239 14 13.9999V5.99986C14 5.17582 13.0592 4.70544 12.4 5.19986ZM18.9497 5.05011C19.5997 5.70012 20.1154 6.4718 20.4671 7.32108C20.8189 8.17036 21 9.08061 21 9.99986C21 10.9191 20.8189 11.8294 20.4671 12.6786C20.1154 13.5279 19.5997 14.2996 18.9497 14.9496L18.1258 14.1256C18.6676 13.5838 19.0974 12.9406 19.3906 12.2327C19.6838 11.5248 19.8347 10.7661 19.8347 9.99986C19.8347 9.23363 19.6838 8.47491 19.3906 7.76701C19.0974 7.0591 18.6676 6.41589 18.1258 5.87408L18.9497 5.05011ZM17.9197 8.37628C17.7065 7.86154 17.3939 7.39383 17 6.99987L16.1523 7.84752C16.435 8.13017 16.6592 8.46572 16.8122 8.83502C16.9651 9.20432 17.0439 9.60013 17.0439 9.99986C17.0439 10.3996 16.9651 10.7954 16.8122 11.1647C16.6592 11.534 16.435 11.8696 16.1523 12.1522L17 12.9999C17.3939 12.6059 17.7065 12.1382 17.9197 11.6234C18.1329 11.1087 18.2426 10.557 18.2426 9.99986C18.2426 9.44271 18.1329 8.89102 17.9197 8.37628Z" fill="url(#paint0_linear)"/>
<path d="M10 6.99986V8.99986H10.6667L11.2 8.59986L10 6.99986ZM12.4 5.19986L11.2 3.59986L11.2 3.59986L12.4 5.19986ZM10 12.9999L11.2 11.3999L10.6667 10.9999H10V12.9999ZM12.4 14.7999L13.6 13.1999L13.6 13.1999L12.4 14.7999ZM18.9497 5.05011L20.364 3.6359L18.9497 2.22169L17.5355 3.6359L18.9497 5.05011ZM21 9.99986L19 9.99986V9.99986H21ZM18.9497 14.9496L17.5355 16.3638L18.9497 17.778L20.364 16.3638L18.9497 14.9496ZM18.1258 14.1256L16.7116 12.7114L15.2973 14.1256L16.7116 15.5399L18.1258 14.1256ZM19.3906 12.2327L21.2383 12.9981L21.2383 12.9981L19.3906 12.2327ZM19.3906 7.76701L21.2383 7.00164L21.2383 7.00164L19.3906 7.76701ZM18.1258 5.87408L16.7116 4.45987L15.2973 5.87408L16.7116 7.2883L18.1258 5.87408ZM17 6.99987L18.4142 5.58565L17 4.17144L15.5858 5.58565L17 6.99987ZM17.9197 8.37628L16.0719 9.14164L16.0719 9.14165L17.9197 8.37628ZM16.1523 7.84752L14.7381 6.4333L13.3239 7.84752L14.7381 9.26173L16.1523 7.84752ZM16.8122 8.83502L14.9644 9.60039L14.9644 9.60039L16.8122 8.83502ZM16.8122 11.1647L14.9644 10.3993L14.9644 10.3993L16.8122 11.1647ZM16.1523 12.1522L14.7381 10.738L13.3239 12.1522L14.7381 13.5664L16.1523 12.1522ZM17 12.9999L15.5858 14.4141L17 15.8283L18.4142 14.4141L17 12.9999ZM17.9197 11.6234L16.0719 10.8581L16.0719 10.8581L17.9197 11.6234ZM11.2 8.59986L13.6 6.79986L11.2 3.59986L8.8 5.39986L11.2 8.59986ZM7 8.99986H10V4.99986H7V8.99986ZM8 7.99986C8 8.55215 7.55229 8.99986 7 8.99986V4.99986C5.34315 4.99986 4 6.34301 4 7.99986H8ZM8 11.9999V7.99986H4V11.9999H8ZM7 10.9999C7.55228 10.9999 8 11.4476 8 11.9999H4C4 13.6567 5.34315 14.9999 7 14.9999V10.9999ZM10 10.9999H7V14.9999H10V10.9999ZM13.6 13.1999L11.2 11.3999L8.8 14.5999L11.2 16.3999L13.6 13.1999ZM12 13.9999C12 13.1758 12.9408 12.7054 13.6 13.1999L11.2 16.3999C13.1777 17.8831 16 16.472 16 13.9999H12ZM12 5.99986V13.9999H16V5.99986H12ZM13.6 6.79986C12.9408 7.29429 12 6.82391 12 5.99986H16C16 3.52773 13.1777 2.11658 11.2 3.59986L13.6 6.79986ZM22.3149 6.55571C21.8626 5.46378 21.1997 4.47163 20.364 3.6359L17.5355 6.46433C17.9998 6.92862 18.3681 7.47982 18.6194 8.08644L22.3149 6.55571ZM23 9.99986C23 8.81797 22.7672 7.64764 22.3149 6.55571L18.6194 8.08644C18.8707 8.69307 19 9.34325 19 9.99986L23 9.99986ZM22.3149 13.444C22.7672 12.3521 23 11.1818 23 9.99986H19C19 10.6565 18.8707 11.3067 18.6194 11.9133L22.3149 13.444ZM20.364 16.3638C21.1997 15.5281 21.8626 14.5359 22.3149 13.444L18.6194 11.9133C18.3681 12.5199 17.9998 13.0711 17.5355 13.5354L20.364 16.3638ZM16.7116 15.5399L17.5355 16.3638L20.364 13.5354L19.54 12.7114L16.7116 15.5399ZM17.5428 11.4673C17.3501 11.9326 17.0676 12.3553 16.7116 12.7114L19.54 15.5399C20.2675 14.8123 20.8446 13.9486 21.2383 12.9981L17.5428 11.4673ZM17.8347 9.99986C17.8347 10.5034 17.7355 11.0021 17.5428 11.4674L21.2383 12.9981C21.6321 12.0475 21.8347 11.0287 21.8347 9.99986H17.8347ZM17.5428 8.53237C17.7355 8.99762 17.8347 9.49628 17.8347 9.99986H21.8347C21.8347 8.97099 21.6321 7.95219 21.2383 7.00164L17.5428 8.53237ZM16.7116 7.2883C17.0676 7.64438 17.3501 8.06712 17.5428 8.53238L21.2383 7.00164C20.8446 6.05109 20.2675 5.18739 19.54 4.45987L16.7116 7.2883ZM17.5355 3.6359L16.7116 4.45987L19.54 7.2883L20.3639 6.46433L17.5355 3.6359ZM15.5858 8.41408C15.794 8.62233 15.9592 8.86955 16.0719 9.14164L19.7674 7.61091C19.4537 6.85352 18.9939 6.16534 18.4142 5.58565L15.5858 8.41408ZM17.5665 9.26173L18.4142 8.41408L15.5858 5.58565L14.7381 6.4333L17.5665 9.26173ZM18.6599 8.06966C18.4064 7.4577 18.0349 6.90167 17.5665 6.4333L14.7381 9.26173C14.8351 9.35866 14.9119 9.47374 14.9644 9.60039L18.6599 8.06966ZM19.0439 9.99986C19.0439 9.33749 18.9134 8.6816 18.6599 8.06965L14.9644 9.60039C15.0169 9.72704 15.0439 9.86278 15.0439 9.99986H19.0439ZM18.6599 11.9301C18.9134 11.3181 19.0439 10.6622 19.0439 9.99986H15.0439C15.0439 10.1369 15.0169 10.2727 14.9644 10.3993L18.6599 11.9301ZM17.5665 13.5664C18.0349 13.0981 18.4064 12.542 18.6599 11.9301L14.9644 10.3993C14.9119 10.526 14.8351 10.6411 14.7381 10.738L17.5665 13.5664ZM18.4142 11.5856L17.5665 10.738L14.7381 13.5664L15.5858 14.4141L18.4142 11.5856ZM16.0719 10.8581C15.9592 11.1302 15.794 11.3774 15.5858 11.5856L18.4142 14.4141C18.9939 13.8344 19.4537 13.1462 19.7674 12.3888L16.0719 10.8581ZM16.2426 9.99986C16.2426 10.2944 16.1846 10.586 16.0719 10.8581L19.7674 12.3888C20.0812 11.6314 20.2426 10.8197 20.2426 9.99986H16.2426ZM16.0719 9.14165C16.1846 9.41373 16.2426 9.70535 16.2426 9.99986H20.2426C20.2426 9.18007 20.0812 8.3683 19.7674 7.61091L16.0719 9.14165Z" fill="#1A1A1A" mask="url(#path-1-outside-1)"/>
</g>
<defs>
<filter id="filter0_dd" x="0" y="0.22168" width="27" height="23.5563" filterUnits="userSpaceOnUse" color-interpolation-filters="sRGB">
<feFlood flood-opacity="0" result="BackgroundImageFix"/>
<feColorMatrix in="SourceAlpha" type="matrix" values="0 0 0 0 0 0 0 0 0 0 0 0 0 0 0 0 0 0 127 0"/>
<feOffset dy="-1"/>
<feGaussianBlur stdDeviation="0.5"/>
<feColorMatrix type="matrix" values="0 0 0 0 0 0 0 0 0 0 0 0 0 0 0 0 0 0 1 0"/>
<feBlend mode="normal" in2="BackgroundImageFix" result="effect1_dropShadow"/>
<feColorMatrix in="SourceAlpha" type="matrix" values="0 0 0 0 0 0 0 0 0 0 0 0 0 0 0 0 0 0 127 0"/>
<feOffset dy="2"/>
<feGaussianBlur stdDeviation="2"/>
<feColorMatrix type="matrix" values="0 0 0 0 0.504167 0 0 0 0 0.504167 0 0 0 0 0.504167 0 0 0 0.25 0"/>
<feBlend mode="normal" in2="effect1_dropShadow" result="effect2_dropShadow"/>
<feBlend mode="normal" in="SourceGraphic" in2="effect2_dropShadow" result="shape"/>
</filter>
<linearGradient id="paint0_linear" x1="13.0853" y1="5.19348" x2="13.0853" y2="15.3871" gradientUnits="userSpaceOnUse">
<stop stop-color="#F9FEFF"/>
<stop offset="1" stop-color="#969696"/>
</linearGradient>
</defs>
</svg>
